<?xml version="1.0" encoding="UTF-8" standalone="no"?>
<!-- Generator: Adobe Illustrator 16.0.0, SVG Export Plug-In . SVG Version: 6.00 Build 0)  -->

<svg
   xmlns:dc="http://purl.org/dc/elements/1.1/"
   xmlns:cc="http://creativecommons.org/ns#"
   xmlns:rdf="http://www.w3.org/1999/02/22-rdf-syntax-ns#"
   xmlns:svg="http://www.w3.org/2000/svg"
   xmlns="http://www.w3.org/2000/svg"
   xmlns:sodipodi="http://sodipodi.sourceforge.net/DTD/sodipodi-0.dtd"
   xmlns:inkscape="http://www.inkscape.org/namespaces/inkscape"
   version="1.1"
   id="Capa_1"
   x="0px"
   y="0px"
   width="18.473845"
   height="12.635905"
   viewBox="0 0 18.473844 12.635906"
   xml:space="preserve"
   sodipodi:docname="checkmark_icon.svg"
   inkscape:version="0.92.3 (2405546, 2018-03-11)"><metadata
   id="metadata895"><rdf:RDF><cc:Work
       rdf:about=""><dc:format>image/svg+xml</dc:format><dc:type
         rdf:resource="http://purl.org/dc/dcmitype/StillImage" /></cc:Work></rdf:RDF></metadata><defs
   id="defs893" /><sodipodi:namedview
   pagecolor="#ffffff"
   bordercolor="#666666"
   borderopacity="1"
   objecttolerance="10"
   gridtolerance="10"
   guidetolerance="10"
   inkscape:pageopacity="0"
   inkscape:pageshadow="2"
   inkscape:window-width="1366"
   inkscape:window-height="745"
   id="namedview891"
   showgrid="false"
   inkscape:zoom="5.9005514"
   inkscape:cx="4.2377652"
   inkscape:cy="-4.1051879"
   inkscape:window-x="-8"
   inkscape:window-y="-8"
   inkscape:window-maximized="1"
   inkscape:current-layer="Capa_1" />

<g
   id="g860"
   transform="translate(-44.571736,-32.067903)">
</g>
<g
   id="g862"
   transform="translate(-44.571736,-32.067903)">
</g>
<g
   id="g864"
   transform="translate(-44.571736,-32.067903)">
</g>
<g
   id="g866"
   transform="translate(-44.571736,-32.067903)">
</g>
<g
   id="g868"
   transform="translate(-44.571736,-32.067903)">
</g>
<g
   id="g870"
   transform="translate(-44.571736,-32.067903)">
</g>
<g
   id="g872"
   transform="translate(-44.571736,-32.067903)">
</g>
<g
   id="g874"
   transform="translate(-44.571736,-32.067903)">
</g>
<g
   id="g876"
   transform="translate(-44.571736,-32.067903)">
</g>
<g
   id="g878"
   transform="translate(-44.571736,-32.067903)">
</g>
<g
   id="g880"
   transform="translate(-44.571736,-32.067903)">
</g>
<g
   id="g882"
   transform="translate(-44.571736,-32.067903)">
</g>
<g
   id="g884"
   transform="translate(-44.571736,-32.067903)">
</g>
<g
   id="g886"
   transform="translate(-44.571736,-32.067903)">
</g>
<g
   id="g888"
   transform="translate(-44.571736,-32.067903)">
</g>
<g
   transform="matrix(0.18924437,0,0,0.14574826,6.9803623e-5,-0.79581744)"
   style="fill:#ffeb3b;fill-opacity:1"
   id="g899">
	<path
   inkscape:connector-curvature="0"
   style="fill:#ffeb3b;fill-opacity:1"
   id="path897"
   d="M 96.939,17.358 83.968,5.959 C 83.57,5.607 83.041,5.428 82.519,5.465 81.99,5.5 81.496,5.743 81.146,6.142 L 34.1,59.688 17.372,37.547 c -0.319,-0.422 -0.794,-0.701 -1.319,-0.773 -0.524,-0.078 -1.059,0.064 -1.481,0.385 L 0.794,47.567 c -0.881,0.666 -1.056,1.92 -0.39,2.801 l 30.974,40.996 c 0.362,0.479 0.922,0.771 1.522,0.793 0.024,0 0.049,0 0.073,0 0.574,0 1.122,-0.246 1.503,-0.68 L 97.12,20.18 c 0.73,-0.829 0.649,-2.094 -0.181,-2.822 z" />
</g></svg>