<?xml version="1.0" encoding="UTF-8" standalone="no"?>
<!-- Generator: Adobe Illustrator 19.0.0, SVG Export Plug-In . SVG Version: 6.00 Build 0)  -->

<svg
   xmlns:dc="http://purl.org/dc/elements/1.1/"
   xmlns:cc="http://creativecommons.org/ns#"
   xmlns:rdf="http://www.w3.org/1999/02/22-rdf-syntax-ns#"
   xmlns:svg="http://www.w3.org/2000/svg"
   xmlns="http://www.w3.org/2000/svg"
   xmlns:xlink="http://www.w3.org/1999/xlink"
   xmlns:sodipodi="http://sodipodi.sourceforge.net/DTD/sodipodi-0.dtd"
   xmlns:inkscape="http://www.inkscape.org/namespaces/inkscape"
   version="1.1"
   id="Layer_1"
   x="0px"
   y="0px"
   viewBox="0 0 512 512"
   style="enable-background:new 0 0 512 512;"
   xml:space="preserve"
   sodipodi:docname="facebook_icon.svg"
   inkscape:version="0.92.3 (2405546, 2018-03-11)"><metadata
   id="metadata907"><rdf:RDF><cc:Work
       rdf:about=""><dc:format>image/svg+xml</dc:format><dc:type
         rdf:resource="http://purl.org/dc/dcmitype/StillImage" /></cc:Work></rdf:RDF></metadata><defs
   id="defs905"><linearGradient
     inkscape:collect="always"
     id="linearGradient1512"><stop
       style="stop-color:#000000;stop-opacity:1;"
       offset="0"
       id="stop1508" /><stop
       style="stop-color:#000000;stop-opacity:0;"
       offset="1"
       id="stop1510" /></linearGradient><linearGradient
     inkscape:collect="always"
     id="linearGradient913"><stop
       style="stop-color:#ffffff;stop-opacity:1;"
       offset="0"
       id="stop909" /><stop
       style="stop-color:#ffffff;stop-opacity:0;"
       offset="1"
       id="stop911" /></linearGradient><linearGradient
     inkscape:collect="always"
     xlink:href="#linearGradient913"
     id="linearGradient915"
     x1="0"
     y1="256"
     x2="512"
     y2="256"
     gradientUnits="userSpaceOnUse" /><linearGradient
     inkscape:collect="always"
     xlink:href="#linearGradient1512"
     id="linearGradient1514"
     x1="0"
     y1="256"
     x2="512"
     y2="256"
     gradientUnits="userSpaceOnUse" /></defs><sodipodi:namedview
   pagecolor="#ffffff"
   bordercolor="#666666"
   borderopacity="1"
   objecttolerance="10"
   gridtolerance="10"
   guidetolerance="10"
   inkscape:pageopacity="0"
   inkscape:pageshadow="2"
   inkscape:window-width="1366"
   inkscape:window-height="745"
   id="namedview903"
   showgrid="false"
   inkscape:zoom="1.125"
   inkscape:cx="111.55556"
   inkscape:cy="256"
   inkscape:window-x="-8"
   inkscape:window-y="-8"
   inkscape:window-maximized="1"
   inkscape:current-layer="Layer_1" />
<g
   id="g870"
   style="fill:#000000;fill-opacity:1">
	<g
   id="g868"
   style="fill:#000000;fill-opacity:1">
		<g
   id="g866"
   style="fill:#000000;fill-opacity:1">
			<path
   d="M469.333,0H42.667C19.14,0,0,19.14,0,42.667v426.667C0,492.86,19.14,512,42.667,512h196.267V341.333h-68.267v-102.4     h68.267v-42.667c0-57.489,44.672-106.197,101.7-110.908l94.566-0.026v102.4h-85.333c-4.702,0-8.533,3.831-8.533,8.533v42.667     h85.333v102.4h-85.333V512h128C492.86,512,512,492.86,512,469.333V42.667C512,19.14,492.86,0,469.333,0z"
   id="path862"
   style="fill:#000000;fill-opacity:1" />
			<path
   d="M409.6,256h-85.333v-59.733c0-14.114,11.486-25.6,25.6-25.6h68.267V102.4h-76.8C293.794,106.351,256,147.593,256,196.267     V256h-68.267v68.267H256V512h68.267V324.267H409.6V256z"
   id="path864"
   style="fill:#000000;fill-opacity:1" />
		</g>
	</g>
</g>
<g
   id="g872">
</g>
<g
   id="g874">
</g>
<g
   id="g876">
</g>
<g
   id="g878">
</g>
<g
   id="g880">
</g>
<g
   id="g882">
</g>
<g
   id="g884">
</g>
<g
   id="g886">
</g>
<g
   id="g888">
</g>
<g
   id="g890">
</g>
<g
   id="g892">
</g>
<g
   id="g894">
</g>
<g
   id="g896">
</g>
<g
   id="g898">
</g>
<g
   id="g900">
</g>
</svg>