<?xml version="1.0" encoding="UTF-8" standalone="no"?>
<!-- Generator: Adobe Illustrator 19.0.0, SVG Export Plug-In . SVG Version: 6.00 Build 0)  -->

<svg
   xmlns:dc="http://purl.org/dc/elements/1.1/"
   xmlns:cc="http://creativecommons.org/ns#"
   xmlns:rdf="http://www.w3.org/1999/02/22-rdf-syntax-ns#"
   xmlns:svg="http://www.w3.org/2000/svg"
   xmlns="http://www.w3.org/2000/svg"
   xmlns:sodipodi="http://sodipodi.sourceforge.net/DTD/sodipodi-0.dtd"
   xmlns:inkscape="http://www.inkscape.org/namespaces/inkscape"
   version="1.1"
   id="Layer_1"
   x="0px"
   y="0px"
   viewBox="0 0 13.005194 18.991702"
   xml:space="preserve"
   sodipodi:docname="marker_icon.svg"
   width="13.005194"
   height="18.991703"
   inkscape:version="0.92.3 (2405546, 2018-03-11)"><metadata
   id="metadata911"><rdf:RDF><cc:Work
       rdf:about=""><dc:format>image/svg+xml</dc:format><dc:type
         rdf:resource="http://purl.org/dc/dcmitype/StillImage" /></cc:Work></rdf:RDF></metadata><defs
   id="defs909"><clipPath
     clipPathUnits="userSpaceOnUse"
     id="clipPath921"><rect
       style="fill:#ffeb3b;fill-opacity:1;stroke:#ffeb3b;stroke-width:0.13500001;stroke-miterlimit:4;stroke-dasharray:none;stroke-opacity:1"
       id="rect923"
       width="303.11111"
       height="514.66669"
       x="-0.8888889"
       y="-0.8888889" /></clipPath></defs><sodipodi:namedview
   pagecolor="#ffffff"
   bordercolor="#666666"
   borderopacity="1"
   objecttolerance="10"
   gridtolerance="10"
   guidetolerance="10"
   inkscape:pageopacity="0"
   inkscape:pageshadow="2"
   inkscape:window-width="1366"
   inkscape:window-height="745"
   id="namedview907"
   showgrid="false"
   inkscape:zoom="12.727922"
   inkscape:cx="19.440271"
   inkscape:cy="1.9072282"
   inkscape:window-x="-8"
   inkscape:window-y="-8"
   inkscape:window-maximized="1"
   inkscape:current-layer="Layer_1" />
<g
   id="g874"
   clip-path="url(#clipPath921)"
   style="fill:#ffeb3b;fill-opacity:1"
   transform="scale(0.04303189,0.03709317)">
	<g
   id="g872"
   style="fill:#ffeb3b;fill-opacity:1">
		<g
   id="g870"
   style="fill:#ffeb3b;fill-opacity:1">
			<path
   d="m 490.667,298.667 c -11.797,0 -21.333,9.557 -21.333,21.333 v 64 H 384 v -64 c 0,-11.776 -9.536,-21.333 -21.333,-21.333 -11.797,0 -21.333,9.557 -21.333,21.333 v 170.667 c 0,11.776 9.536,21.333 21.333,21.333 11.797,0 21.333,-9.557 21.333,-21.333 v -64 h 85.333 v 64 c 0,11.776 9.536,21.333 21.333,21.333 C 502.463,512 512,502.443 512,490.667 V 320 c 0,-11.776 -9.536,-21.333 -21.333,-21.333 z"
   id="path864"
   inkscape:connector-curvature="0"
   style="fill:#ffeb3b;fill-opacity:1" />
			<path
   d="M 149.333,128 C 137.557,128 128,137.579 128,149.333 c 0,11.755 9.557,21.333 21.333,21.333 11.776,0 21.333,-9.579 21.333,-21.333 C 170.667,137.579 161.109,128 149.333,128 Z"
   id="path866"
   inkscape:connector-curvature="0"
   style="fill:#ffeb3b;fill-opacity:1" />
			<path
   d="M 149.333,0 C 67.008,0 0,66.987 0,149.333 0,218.709 116.693,471.125 130.005,499.669 133.504,507.178 141.034,512 149.312,512 h 0.021 c 8.299,0 15.808,-4.8 19.328,-12.309 C 181.952,471.232 298.666,219.584 298.666,149.334 298.667,66.987 231.659,0 149.333,0 Z m 0,213.333 c -35.285,0 -64,-28.715 -64,-64 0,-35.285 28.715,-64 64,-64 35.285,0 64,28.715 64,64 0,35.286 -28.714,64 -64,64 z"
   id="path868"
   inkscape:connector-curvature="0"
   style="fill:#ffeb3b;fill-opacity:1" />
		</g>
	</g>
</g>
<g
   id="g876">
</g>
<g
   id="g878">
</g>
<g
   id="g880">
</g>
<g
   id="g882">
</g>
<g
   id="g884">
</g>
<g
   id="g886">
</g>
<g
   id="g888">
</g>
<g
   id="g890">
</g>
<g
   id="g892">
</g>
<g
   id="g894">
</g>
<g
   id="g896">
</g>
<g
   id="g898">
</g>
<g
   id="g900">
</g>
<g
   id="g902">
</g>
<g
   id="g904">
</g>
</svg>