<?xml version="1.0" encoding="iso-8859-1"?>
<!-- Generator: Adobe Illustrator 19.0.0, SVG Export Plug-In . SVG Version: 6.00 Build 0)  -->
<svg version="1.1" id="Capa_1" xmlns="http://www.w3.org/2000/svg" xmlns:xlink="http://www.w3.org/1999/xlink" x="0px" y="0px"
	 viewBox="0 0 512 512" style="enable-background:new 0 0 512 512;" xml:space="preserve">
<g>
	<g>
		<path d="M271.12,231.982c-4.143,0-7.5,3.357-7.5,7.5v8.656c0,4.201-3.418,7.619-7.619,7.619c-4.2,0-7.618-3.418-7.618-7.619
			v-8.656c0-4.143-3.357-7.5-7.5-7.5s-7.5,3.357-7.5,7.5v8.656c0,12.473,10.146,22.62,22.619,22.62
			c12.473,0,22.62-10.146,22.62-22.62v-8.656C278.621,235.339,275.262,231.982,271.12,231.982z"/>
	</g>
</g>
<g>
	<g>
		<path d="M347.23,206.472c-2.658-3.177-7.39-3.597-10.564-0.938c-11.847,9.917-29.142,9.904-40.975,0
			c-3.175-2.659-7.905-2.239-10.564,0.938c-2.659,3.176-2.239,7.906,0.938,10.564c17.419,14.582,42.832,14.563,60.23,0
			C349.469,214.378,349.889,209.648,347.23,206.472z"/>
	</g>
</g>
<g>
	<g>
		<path d="M226.875,206.472c-2.659-3.177-7.391-3.597-10.565-0.938c-11.848,9.917-29.142,9.904-40.974,0
			c-3.174-2.659-7.906-2.239-10.564,0.938c-2.659,3.176-2.239,7.906,0.938,10.564c8.424,7.052,19.118,10.935,30.114,10.935
			s21.69-3.883,30.114-10.935C229.114,214.378,229.534,209.647,226.875,206.472z"/>
	</g>
</g>
<g>
	<g>
		<path d="M256.501,282.429c-10.326,0-18.729,8.401-18.729,18.729v7.887c0,10.326,8.401,18.728,18.729,18.728
			c10.326,0,18.728-8.401,18.728-18.728v-7.887C275.228,290.831,266.827,282.429,256.501,282.429z M260.228,309.044
			c0,2.056-1.672,3.728-3.728,3.728c-2.056,0-3.728-1.672-3.728-3.728v-7.887c0-2.056,1.672-3.728,3.728-3.728
			c2.056,0,3.728,1.672,3.728,3.728V309.044z"/>
	</g>
</g>
<g>
	<g>
		<path d="M443.719,438.543c-4.328-15.672-15.11-29.064-29.585-36.738c-5.646-2.995-11.415-5.784-17.2-8.38
			c25.941-59.469,47.291-140.53,42.43-204.958c7.673-16.372,18.214-26.736,17.251-46.428c-0.005-0.1-2.316-47.49-2.323-47.59
			c-0.429-10.128-3.854-19.772-9.911-27.896c-1.682-2.256-2.607-5.185-2.607-8.247V17.3c0-9.528-7.752-17.28-17.28-17.28H383.3
			c-10.752,0-19.5,8.748-19.5,19.5v18.319c-8.185-6.492-16.868-12.247-25.969-17.164c-3.642-1.968-8.194-0.611-10.163,3.034
			c-1.969,3.644-0.61,8.194,3.034,10.163c11.87,6.413,22.991,14.365,33.097,23.665v13.446c-7.911,10.865-6.98,17.776-9.284,22.293
			c-5.316,10.419-17.413,19.758-26.28,25.997c-14.417,10.403-12.585,26.426-2.631,35.45c-34.127-15.114-72.405-39.677-97.922-67.321
			c-4.442-4.795-12.313-3.92-15.549,1.829c-3.171,5.64-11.56,19.136-25.663,32.251c-4.123-3.733-27.839-18.36-30.574-33.355
			c-1.121-6.124-4.084-12.19-7.691-17.145V57.538c42.543-39.132,99.769-51.235,151.312-36.415c3.978,1.146,8.136-1.154,9.28-5.136
			c1.145-3.98-1.154-8.136-5.136-9.28c-52.515-15.1-110.255-4.689-155.456,31.119V19.52c0-10.752-8.748-19.5-19.5-19.5H87.507
			c-9.528,0-17.28,7.752-17.28,17.28c-0.773,39.22,1.864,43.257-2.608,49.253c-6.08,8.158-9.509,17.847-9.914,28.018
			c-0.165,4.139,3.057,7.628,7.195,7.793c4.126,0.159,7.627-3.057,7.793-7.195c0.745-18.704,12.534-19.724,12.534-36.862V17.3
			c0-1.258,1.022-2.28,2.28-2.28h41.194c2.439,0,4.5,2.061,4.5,4.5c0,67.705-1.752,52.213,4.535,62.809
			c4.855,8.174,2.375,9.903,6.388,17.767c7.697,15.084,25.604,27.829,30.907,31.376c0.499,0.441,2.601,1.745,3.67,3.938
			c1.439,3.11-0.727,6.199-0.701,6.099c-0.996,1.699-2.369,2.803-3.91,3.449c-4.455,1.866-8.325-0.053-12.278-2.133
			c-14.418-7.892-21.12-16.102-29.688-24.609c-8.134-8.244-21.999-4.551-25.28,5.078l-5.692,16.8
			c-5.552,12.483,0.465,19.362,13.839,59.535c1.549,4.431-0.502,9.246-4.729,11.216c-3.798,1.77-8.333,0.271-10.325-3.415
			l-13.062-24.167v-0.001c-9.474-19.468-17.201-26.312-16.507-40.491l0.568-11.6c0.202-4.138-2.987-7.655-7.124-7.858
			c-4.131-0.182-7.655,2.987-7.858,7.124l-0.568,11.601c-0.961,19.699,9.587,30.074,17.251,46.428
			c-4.857,64.417,16.465,145.438,42.431,204.96c-5.79,2.596-11.561,5.385-17.202,8.377c-14.472,7.675-25.255,21.065-29.584,36.737
			l-11.694,42.342c-2.06,7.46-0.553,15.27,4.134,21.427C65.409,508.469,72.534,512,80.274,512H316.18c4.143,0,7.5-3.357,7.5-7.5
			c0-4.143-3.357-7.5-7.5-7.5H134.693v-36.733c0-4.143-3.357-7.5-7.5-7.5s-7.5,3.357-7.5,7.5V497h-39.42
			c-6.326,0-10.912-6.02-9.227-12.121l11.694-42.342c3.235-11.713,11.31-21.73,22.152-27.48
			c34.37-18.228,74.647-28.848,92.188-32.931c0,0.102,0,6.343,0,6.209c0,4.68,1.159,9.275,3.148,13.2
			c3.994,7.85,20.654,27.679,39.134,40.88c9.95,7.105,23.322,7.109,33.274,0c14.091-10.066,26.999-23.428,36.74-36.951
			c5.431-7.536,5.734-14.342,5.542-23.341c29.948,6.961,64.718,18.362,92.188,32.933c10.844,5.751,18.918,15.766,22.153,27.48
			l11.694,42.342c1.685,6.097-2.896,12.121-9.228,12.121h-39.415v-36.733c0-4.143-3.357-7.5-7.5-7.5s-7.5,3.357-7.5,7.5V497h-26.13
			c-4.143,0-7.5,3.357-7.5,7.5s3.357,7.5,7.5,7.5h80.547c16.238,0,28.013-15.45,23.688-31.116L443.719,438.543z M336.968,131.471
			c13.407-8.951,30.522-23.991,33.72-39.827c2.309-11.443,8.11-12.66,8.11-18.105V19.52c0-2.439,2.061-4.5,4.5-4.5h41.193
			c1.258,0,2.28,1.022,2.28,2.28v41.006c0,17.586,11.115,16.307,12.55,37.119c0.074,1.001,0.086,0.937,0.081,0.659
			c0.098,2.35,0.541,12.18,2.229,46.69c0.293,5.971-1.056,11.905-3.898,17.164l-25.672,47.492
			c-1.994,3.687-6.532,5.182-10.324,3.416c-4.24-1.979-6.274-6.8-4.73-11.217l14.57-41.69c2.106-6.026,1.682-12.419-0.731-17.844
			c-0.034-0.101-5.776-17.09-5.999-17.567c-4.515-9.671-17.38-12.006-24.974-4.311c-5.628,5.708-5.367,5.431-5.576,5.662
			c-12.331,13.666-26.801,20.355-27.416,20.635c-4.834,2.206-10.809,1.589-13.462-4.097
			C332.214,137.828,336.572,132.002,336.968,131.471z M389.321,176.154c-3.347-2.531-17.445-3.099-49.354-15.469
			c4.574,0.322,9.052-0.658,13.141-2.526c1.814-0.826,18.089-8.51,32.212-24.105c4.215-3.908,5.167-5.951,5.837-5.325l5.602,16.533
			c0.311,0.912,2.034,3.787,0.658,7.728L389.321,176.154z M115.241,145.262l5.601-16.532c1.193-1.118,6.745,8.374,20.87,18.927
			c-9.042,2.69-13.254,2.737-15.127,3.548c-9.096,3.945-6.439,14.18-6.879,16.436C113.158,148.858,113.198,151.254,115.241,145.262z
			 M197.08,366.729c-11.908,2.637-39.222,9.339-68.199,20.867C104.084,330.823,88.378,266.06,86.996,215.02
			c6.228,10.939,20.89,15.427,32.7,7.665c1.302,7.844-8.813,63.056,39.8,109.838c11.114,10.696,23.817,19.325,37.585,25.677V366.729
			z M293.934,401.053c-8.506,10.913-18.8,21.145-30.016,29.157c-4.439,3.17-10.31,3.37-14.93,0.595
			c-10.937-6.575-31.047-27.989-35.209-35.748c-2.264-4.224-1.698-4.981-1.698-30.979c27.752,9.048,59.189,9.338,87.838-0.001
			C299.919,394.511,301.307,391.595,293.934,401.053z M253.366,355.939c-0.009,0-0.105-0.002-0.114-0.002v0.001
			c-0.052-0.001-0.105-0.002-0.157-0.003v-0.001c-64.446-1.352-118.401-51.7-118.401-115.879
			c0.014-87.114,0.012-73.365,0.012-75.255c7.953-1.533,15.766-3.896,23.312-7.052c21.303,10.282,38.221-7.616,36.031-22.883
			c13.199-11.697,22.262-24.027,27.459-32.142c33.013,33.977,91.29,69.735,155.795,85.369l0.009,51.962
			C377.309,306.617,319.118,357.962,253.366,355.939z M314.919,366.725v-8.525c13.771-6.352,26.474-14.981,37.588-25.678
			c48.636-46.804,38.491-101.95,39.8-109.836c11.653,7.669,26.371,3.419,32.697-7.667c-1.382,51.038-17.086,115.796-41.883,172.568
			C354.059,376.017,326.749,369.339,314.919,366.725z"/>
	</g>
</g>
<g>
</g>
<g>
</g>
<g>
</g>
<g>
</g>
<g>
</g>
<g>
</g>
<g>
</g>
<g>
</g>
<g>
</g>
<g>
</g>
<g>
</g>
<g>
</g>
<g>
</g>
<g>
</g>
<g>
</g>
</svg>
