<?xml version="1.0" standalone="no"?>
<!DOCTYPE svg PUBLIC "-//W3C//DTD SVG 20010904//EN"
 "http://www.w3.org/TR/2001/REC-SVG-20010904/DTD/svg10.dtd">
<svg version="1.0" xmlns="http://www.w3.org/2000/svg"
 width="1171.000000pt" height="1280.000000pt" viewBox="0 0 1171.000000 1280.000000"
 preserveAspectRatio="xMidYMid meet">
<g transform="translate(0.000000,1280.000000) scale(0.100000,-0.100000)"
fill="#000000" stroke="none">
<path d="M6405 12773 c-64 -33 -154 -125 -285 -288 -125 -157 -257 -291 -325
-330 -89 -51 -130 -91 -391 -383 -324 -363 -452 -493 -689 -702 -251 -222
-304 -272 -435 -419 -182 -203 -283 -346 -473 -666 -113 -191 -249 -397 -330
-498 -30 -37 -126 -141 -212 -230 -165 -170 -245 -262 -312 -362 -82 -122
-228 -387 -353 -640 -200 -405 -317 -699 -480 -1205 -188 -586 -262 -790 -372
-1035 -159 -352 -456 -795 -684 -1021 -151 -149 -302 -238 -719 -425 l-260
-116 -17 -119 c-99 -699 -86 -1445 38 -2089 141 -737 417 -1424 792 -1975 46
-69 111 -157 143 -197 l59 -72 238 116 c546 266 873 405 1187 506 471 151 857
212 1425 224 410 8 536 -6 975 -111 244 -58 342 -69 555 -63 258 8 396 38 764
163 71 24 256 82 410 129 155 46 502 158 771 249 773 259 954 311 1396 396
353 68 395 77 529 112 111 28 461 134 546 164 31 11 74 48 167 143 234 240
285 329 420 727 102 303 151 420 262 629 221 413 308 615 321 743 11 103 -22
159 -121 209 -27 14 -51 27 -53 28 -2 2 15 56 37 121 106 313 139 527 127 823
-4 97 -11 291 -15 431 -8 282 -14 310 -78 408 -19 28 -56 70 -81 93 -43 37
-644 457 -1047 731 -471 320 -849 541 -1024 597 -60 20 -87 21 -395 21 -1118
0 -1820 -125 -2202 -392 -41 -28 -76 -49 -80 -46 -3 4 11 48 31 100 43 111 57
125 270 277 516 369 1214 824 1471 958 l120 63 360 10 c732 20 1154 51 1177
84 5 8 9 8 15 0 4 -6 16 -16 27 -22 11 -5 119 -87 240 -182 490 -381 774 -533
1066 -569 141 -18 270 10 393 86 189 115 298 229 385 402 l23 43 -24 34 c-77
108 -341 292 -663 464 -193 102 -320 192 -489 346 -318 288 -392 331 -681 389
-249 50 -418 63 -955 75 -228 5 -469 14 -535 21 -114 12 -128 11 -235 -10
-518 -103 -1372 -366 -1910 -589 -52 -22 -157 -67 -233 -101 -245 -109 -227
-92 272 241 694 464 977 673 1174 870 68 68 68 68 180 99 417 113 668 193 932
299 280 112 337 126 885 219 643 108 781 155 950 321 204 200 236 430 85 598
-88 98 -194 129 -405 119 -115 -6 -220 -18 -645 -77 -217 -30 -406 -48 -605
-59 -200 -12 -265 -26 -560 -123 -334 -110 -779 -280 -1165 -446 -536 -230
-815 -390 -1440 -828 -503 -352 -681 -462 -706 -437 -15 15 -5 41 50 125 126
194 470 591 1077 1243 138 149 278 302 311 340 34 39 127 140 208 225 159 168
205 227 236 311 29 75 35 204 15 299 -40 186 -177 375 -305 419 -49 16 -70 13
-126 -16z m2052 -6545 c352 -260 755 -457 1198 -583 6 -1 18 -36 29 -76 77
-301 232 -665 377 -884 45 -68 108 -146 165 -203 l92 -92 -96 -69 c-425 -301
-706 -609 -917 -1001 -77 -144 -108 -188 -138 -199 -13 -5 -111 3 -242 20
-121 16 -300 34 -397 40 -395 26 -887 -40 -1349 -182 -53 -16 -101 -29 -107
-29 -6 0 -27 28 -48 61 -54 90 -174 249 -272 362 -122 141 -256 264 -508 468
-122 98 -247 206 -279 241 -101 108 -138 221 -115 350 17 94 212 673 258 764
83 165 167 251 392 399 217 143 334 193 570 245 435 94 711 188 1145 388 71
33 134 57 140 54 5 -3 52 -37 102 -74z"/>
</g>
</svg>
