<?xml version="1.0" encoding="UTF-8" standalone="no"?>
<!-- Generator: Adobe Illustrator 18.1.1, SVG Export Plug-In . SVG Version: 6.00 Build 0)  -->

<svg
   xmlns:dc="http://purl.org/dc/elements/1.1/"
   xmlns:cc="http://creativecommons.org/ns#"
   xmlns:rdf="http://www.w3.org/1999/02/22-rdf-syntax-ns#"
   xmlns:svg="http://www.w3.org/2000/svg"
   xmlns="http://www.w3.org/2000/svg"
   xmlns:xlink="http://www.w3.org/1999/xlink"
   xmlns:sodipodi="http://sodipodi.sourceforge.net/DTD/sodipodi-0.dtd"
   xmlns:inkscape="http://www.inkscape.org/namespaces/inkscape"
   version="1.1"
   id="Capa_1"
   x="0px"
   y="0px"
   viewBox="0 0 31.694 31.694"
   style="enable-background:new 0 0 31.694 31.694;"
   xml:space="preserve"
   sodipodi:docname="shield_icon.svg"
   inkscape:version="0.92.3 (2405546, 2018-03-11)"><metadata
   id="metadata1676"><rdf:RDF><cc:Work
       rdf:about=""><dc:format>image/svg+xml</dc:format><dc:type
         rdf:resource="http://purl.org/dc/dcmitype/StillImage" /></cc:Work></rdf:RDF></metadata><defs
   id="defs1674"><linearGradient
     inkscape:collect="always"
     id="linearGradient2269"><stop
       style="stop-color:#ffeb3b;stop-opacity:1;"
       offset="0"
       id="stop2265" /><stop
       style="stop-color:#ffeb3b;stop-opacity:0;"
       offset="1"
       id="stop2267" /></linearGradient><linearGradient
     inkscape:collect="always"
     xlink:href="#linearGradient2269"
     id="linearGradient2271"
     x1="4.106"
     y1="15.847"
     x2="27.588"
     y2="15.847"
     gradientUnits="userSpaceOnUse" /></defs><sodipodi:namedview
   pagecolor="#ffffff"
   bordercolor="#666666"
   borderopacity="1"
   objecttolerance="10"
   gridtolerance="10"
   guidetolerance="10"
   inkscape:pageopacity="0"
   inkscape:pageshadow="2"
   inkscape:window-width="1366"
   inkscape:window-height="745"
   id="namedview1672"
   showgrid="false"
   inkscape:zoom="7.4462043"
   inkscape:cx="-5.9761993"
   inkscape:cy="15.847"
   inkscape:window-x="-8"
   inkscape:window-y="-8"
   inkscape:window-maximized="1"
   inkscape:current-layer="Capa_1" />
<g
   id="g1639"
   style="fill:#ffeb3b;fill-opacity:1;stroke:#000000;stroke-opacity:1;stroke-width:0.2;stroke-miterlimit:4;stroke-dasharray:none">
	<path
   d="M23.112,9.35c-4.473,2.742-7.697,6.205-9.006,7.744l-3.361-2.633c-0.089-0.064-1.934,1.574-1.885,1.625l6.121,6.223   c0.045,0.051,0.107,0.074,0.174,0.074c0.012,0,0.031,0,0.047-0.004c0.08-0.018,0.148-0.072,0.178-0.152   c0.986-2.521,4.242-7.799,8.4-11.627c0.074-0.07,0.1-0.18,0.059-0.275C23.838,10.324,23.174,9.312,23.112,9.35z"
   id="path1605"
   style="fill:#ffeb3b;fill-opacity:1;stroke:#000000;stroke-opacity:1;stroke-width:0.2;stroke-miterlimit:4;stroke-dasharray:none" />
	<path
   d="M27.126,3.842c-9.268,0-10.836-3.518-10.85-3.551C16.208,0.119,16.04,0.004,15.85,0c0,0-0.004,0-0.008,0   c-0.184,0-0.354,0.115-0.428,0.283C15.403,0.32,13.801,3.842,4.568,3.842c-0.258,0-0.462,0.209-0.462,0.461v15.764   c0,6.453,11.084,11.383,11.553,11.59c0.062,0.027,0.121,0.037,0.188,0.037c0.061,0,0.127-0.01,0.186-0.037   c0.473-0.207,11.555-5.137,11.555-11.59V4.303C27.586,4.051,27.381,3.842,27.126,3.842z M25.038,19.15   c0,5.049-8.678,8.912-9.047,9.072c-0.045,0.023-0.098,0.031-0.145,0.031c-0.051,0-0.098-0.008-0.146-0.031   c-0.365-0.16-9.046-4.023-9.046-9.072V6.811c0-0.199,0.161-0.363,0.362-0.363c7.229,0,8.482-2.756,8.494-2.783   c0.057-0.133,0.189-0.223,0.334-0.223c0.002,0,0.006,0,0.006,0c0.148,0.002,0.279,0.092,0.332,0.229   c0.012,0.025,1.24,2.777,8.494,2.777c0.201,0,0.361,0.164,0.361,0.363L25.038,19.15L25.038,19.15z"
   id="path1607"
   style="fill:#ffeb3b;fill-opacity:1;stroke:#000000;stroke-opacity:1;stroke-width:0.2;stroke-miterlimit:4;stroke-dasharray:none" />
	<g
   id="g1609"
   style="fill:#ffeb3b;fill-opacity:1;stroke:#000000;stroke-opacity:1;stroke-width:0.2;stroke-miterlimit:4;stroke-dasharray:none">
	</g>
	<g
   id="g1611"
   style="fill:#ffeb3b;fill-opacity:1;stroke:#000000;stroke-opacity:1;stroke-width:0.2;stroke-miterlimit:4;stroke-dasharray:none">
	</g>
	<g
   id="g1613"
   style="fill:#ffeb3b;fill-opacity:1;stroke:#000000;stroke-opacity:1;stroke-width:0.2;stroke-miterlimit:4;stroke-dasharray:none">
	</g>
	<g
   id="g1615"
   style="fill:#ffeb3b;fill-opacity:1;stroke:#000000;stroke-opacity:1;stroke-width:0.2;stroke-miterlimit:4;stroke-dasharray:none">
	</g>
	<g
   id="g1617"
   style="fill:#ffeb3b;fill-opacity:1;stroke:#000000;stroke-opacity:1;stroke-width:0.2;stroke-miterlimit:4;stroke-dasharray:none">
	</g>
	<g
   id="g1619"
   style="fill:#ffeb3b;fill-opacity:1;stroke:#000000;stroke-opacity:1;stroke-width:0.2;stroke-miterlimit:4;stroke-dasharray:none">
	</g>
	<g
   id="g1621"
   style="fill:#ffeb3b;fill-opacity:1;stroke:#000000;stroke-opacity:1;stroke-width:0.2;stroke-miterlimit:4;stroke-dasharray:none">
	</g>
	<g
   id="g1623"
   style="fill:#ffeb3b;fill-opacity:1;stroke:#000000;stroke-opacity:1;stroke-width:0.2;stroke-miterlimit:4;stroke-dasharray:none">
	</g>
	<g
   id="g1625"
   style="fill:#ffeb3b;fill-opacity:1;stroke:#000000;stroke-opacity:1;stroke-width:0.2;stroke-miterlimit:4;stroke-dasharray:none">
	</g>
	<g
   id="g1627"
   style="fill:#ffeb3b;fill-opacity:1;stroke:#000000;stroke-opacity:1;stroke-width:0.2;stroke-miterlimit:4;stroke-dasharray:none">
	</g>
	<g
   id="g1629"
   style="fill:#ffeb3b;fill-opacity:1;stroke:#000000;stroke-opacity:1;stroke-width:0.2;stroke-miterlimit:4;stroke-dasharray:none">
	</g>
	<g
   id="g1631"
   style="fill:#ffeb3b;fill-opacity:1;stroke:#000000;stroke-opacity:1;stroke-width:0.2;stroke-miterlimit:4;stroke-dasharray:none">
	</g>
	<g
   id="g1633"
   style="fill:#ffeb3b;fill-opacity:1;stroke:#000000;stroke-opacity:1;stroke-width:0.2;stroke-miterlimit:4;stroke-dasharray:none">
	</g>
	<g
   id="g1635"
   style="fill:#ffeb3b;fill-opacity:1;stroke:#000000;stroke-opacity:1;stroke-width:0.2;stroke-miterlimit:4;stroke-dasharray:none">
	</g>
	<g
   id="g1637"
   style="fill:#ffeb3b;fill-opacity:1;stroke:#000000;stroke-opacity:1;stroke-width:0.2;stroke-miterlimit:4;stroke-dasharray:none">
	</g>
</g>
<g
   id="g1641">
</g>
<g
   id="g1643">
</g>
<g
   id="g1645">
</g>
<g
   id="g1647">
</g>
<g
   id="g1649">
</g>
<g
   id="g1651">
</g>
<g
   id="g1653">
</g>
<g
   id="g1655">
</g>
<g
   id="g1657">
</g>
<g
   id="g1659">
</g>
<g
   id="g1661">
</g>
<g
   id="g1663">
</g>
<g
   id="g1665">
</g>
<g
   id="g1667">
</g>
<g
   id="g1669">
</g>
</svg>