<?xml version="1.0" encoding="UTF-8" standalone="no"?>
<!-- Generator: Adobe Illustrator 18.0.0, SVG Export Plug-In . SVG Version: 6.00 Build 0)  -->

<svg
   xmlns:dc="http://purl.org/dc/elements/1.1/"
   xmlns:cc="http://creativecommons.org/ns#"
   xmlns:rdf="http://www.w3.org/1999/02/22-rdf-syntax-ns#"
   xmlns:svg="http://www.w3.org/2000/svg"
   xmlns="http://www.w3.org/2000/svg"
   xmlns:xlink="http://www.w3.org/1999/xlink"
   xmlns:sodipodi="http://sodipodi.sourceforge.net/DTD/sodipodi-0.dtd"
   xmlns:inkscape="http://www.inkscape.org/namespaces/inkscape"
   version="1.1"
   id="Capa_1"
   x="0px"
   y="0px"
   viewBox="0 0 300.328 353.14001"
   xml:space="preserve"
   sodipodi:docname="worker_icon.svg"
   width="300.328"
   height="353.14001"
   inkscape:version="0.92.3 (2405546, 2018-03-11)"><metadata
   id="metadata899"><rdf:RDF><cc:Work
       rdf:about=""><dc:format>image/svg+xml</dc:format><dc:type
         rdf:resource="http://purl.org/dc/dcmitype/StillImage" /></cc:Work></rdf:RDF></metadata><defs
   id="defs897"><linearGradient
     inkscape:collect="always"
     id="linearGradient905"><stop
       style="stop-color:#ffeb3b;stop-opacity:1;"
       offset="0"
       id="stop901" /><stop
       style="stop-color:#ffeb3b;stop-opacity:0;"
       offset="1"
       id="stop903" /></linearGradient><linearGradient
     inkscape:collect="always"
     xlink:href="#linearGradient905"
     id="linearGradient907"
     x1="26.405891"
     y1="176.57001"
     x2="326.73389"
     y2="176.57001"
     gradientUnits="userSpaceOnUse" /></defs><sodipodi:namedview
   pagecolor="#ffffff"
   bordercolor="#666666"
   borderopacity="1"
   objecttolerance="10"
   gridtolerance="10"
   guidetolerance="10"
   inkscape:pageopacity="0"
   inkscape:pageshadow="2"
   inkscape:window-width="1366"
   inkscape:window-height="745"
   id="namedview895"
   showgrid="false"
   inkscape:zoom="1.6310857"
   inkscape:cx="150.16361"
   inkscape:cy="176.5705"
   inkscape:window-x="-8"
   inkscape:window-y="-8"
   inkscape:window-maximized="1"
   inkscape:current-layer="Capa_1" />
<g
   id="g862"
   style="fill:#ffeb3b;fill-opacity:1"
   transform="translate(-26.405891)">
	<path
   d="m 176.57,200.676 c 24.125,0 80.846,-29.034 80.846,-98.603 0,-49.095 -5.984,-89.802 -61.013,-97.344 V 1.308 c -13.196,-1.744 -26.47,-1.744 -39.666,0 V 4.73 c -55.029,7.542 -61.013,48.249 -61.013,97.344 -0.001,69.568 56.721,98.602 80.846,98.602 z m 19.833,-184.06 c 3.487,0.532 6.669,1.201 9.564,1.985 l -4.723,42.271 h -4.842 V 16.616 Z m -39.666,0 v 44.256 h -4.842 l -4.723,-42.271 c 2.896,-0.785 6.078,-1.453 9.565,-1.985 z m -48.891,67.977 0.775,-0.448 0.392,2.081 c 1.653,8.789 5.828,21.386 9.931,21.879 23.519,2.82 40.753,4.025 57.626,4.025 16.873,0 34.107,-1.205 57.625,-4.025 4.107,-0.494 8.28,-13.09 9.931,-21.878 l 0.391,-2.083 0.775,0.449 c 0.271,5.765 0.354,11.635 0.354,17.481 0,34.005 -15.015,55.075 -27.612,66.762 -15.872,14.727 -33.494,20.072 -41.466,20.072 -7.972,0 -25.594,-5.345 -41.466,-20.072 -12.597,-11.687 -27.612,-32.757 -27.612,-66.762 0.002,-5.846 0.085,-11.716 0.356,-17.481 z"
   id="path858"
   style="fill:#ffeb3b;fill-opacity:1"
   inkscape:connector-curvature="0" />
	<path
   d="m 326.662,301.799 c -4.127,-25.665 -12.624,-58.724 -29.667,-70.472 -11.638,-8.024 -52.243,-29.718 -69.582,-38.981 l -0.3,-0.16 c -1.982,-1.06 -4.403,-0.846 -6.17,0.541 -9.083,7.131 -19.033,11.937 -29.573,14.284 -1.862,0.415 -3.39,1.738 -4.067,3.521 l -10.733,28.291 -10.733,-28.291 c -0.677,-1.783 -2.205,-3.106 -4.067,-3.521 -10.54,-2.347 -20.49,-7.153 -29.573,-14.284 -1.768,-1.388 -4.189,-1.601 -6.17,-0.541 -17.133,9.155 -58.235,31.292 -69.831,39.107 -19.619,13.217 -28.198,61.052 -29.718,70.507 -0.151,0.938 -0.064,1.897 0.253,2.792 0.702,1.982 18.708,48.548 149.839,48.548 131.131,0 149.137,-46.566 149.839,-48.548 0.316,-0.896 0.404,-1.856 0.253,-2.793 z m -67.232,33.675 c -20.077,5.113 -46.949,8.704 -82.865,8.704 -35.918,0 -62.787,-3.591 -82.867,-8.704 6.136,-52.384 0.311,-97.785 -2.797,-116.367 3.126,-1.735 6.313,-3.487 9.479,-5.223 11.773,31.122 13.855,70.533 13.855,70.533 h 56.999 10.662 56.997 c 0,0 2.085,-39.447 13.874,-70.575 3.163,1.728 6.347,3.474 9.472,5.202 -3.106,18.545 -8.952,63.988 -2.809,116.43 z"
   id="path860"
   style="fill:#ffeb3b;fill-opacity:1"
   inkscape:connector-curvature="0" />
</g>
<g
   id="g864"
   transform="translate(-26.405891)">
</g>
<g
   id="g866"
   transform="translate(-26.405891)">
</g>
<g
   id="g868"
   transform="translate(-26.405891)">
</g>
<g
   id="g870"
   transform="translate(-26.405891)">
</g>
<g
   id="g872"
   transform="translate(-26.405891)">
</g>
<g
   id="g874"
   transform="translate(-26.405891)">
</g>
<g
   id="g876"
   transform="translate(-26.405891)">
</g>
<g
   id="g878"
   transform="translate(-26.405891)">
</g>
<g
   id="g880"
   transform="translate(-26.405891)">
</g>
<g
   id="g882"
   transform="translate(-26.405891)">
</g>
<g
   id="g884"
   transform="translate(-26.405891)">
</g>
<g
   id="g886"
   transform="translate(-26.405891)">
</g>
<g
   id="g888"
   transform="translate(-26.405891)">
</g>
<g
   id="g890"
   transform="translate(-26.405891)">
</g>
<g
   id="g892"
   transform="translate(-26.405891)">
</g>
</svg>