<?xml version="1.0" encoding="UTF-8" standalone="no"?>
<!-- Generator: Adobe Illustrator 19.0.0, SVG Export Plug-In . SVG Version: 6.00 Build 0)  -->

<svg
   xmlns:dc="http://purl.org/dc/elements/1.1/"
   xmlns:cc="http://creativecommons.org/ns#"
   xmlns:rdf="http://www.w3.org/1999/02/22-rdf-syntax-ns#"
   xmlns:svg="http://www.w3.org/2000/svg"
   xmlns="http://www.w3.org/2000/svg"
   xmlns:xlink="http://www.w3.org/1999/xlink"
   xmlns:sodipodi="http://sodipodi.sourceforge.net/DTD/sodipodi-0.dtd"
   xmlns:inkscape="http://www.inkscape.org/namespaces/inkscape"
   version="1.1"
   id="Layer_1"
   x="0px"
   y="0px"
   viewBox="0 0 455 455"
   style="enable-background:new 0 0 455 455;"
   xml:space="preserve"
   sodipodi:docname="youtube_icon.svg"
   inkscape:version="0.92.3 (2405546, 2018-03-11)"><metadata
   id="metadata1661"><rdf:RDF><cc:Work
       rdf:about=""><dc:format>image/svg+xml</dc:format><dc:type
         rdf:resource="http://purl.org/dc/dcmitype/StillImage" /></cc:Work></rdf:RDF></metadata><defs
   id="defs1659"><linearGradient
     inkscape:collect="always"
     id="linearGradient2212"><stop
       style="stop-color:#ffffff;stop-opacity:1;"
       offset="0"
       id="stop2208" /><stop
       style="stop-color:#ffffff;stop-opacity:0;"
       offset="1"
       id="stop2210" /></linearGradient><linearGradient
     inkscape:collect="always"
     xlink:href="#linearGradient2212"
     id="linearGradient2214"
     x1="0"
     y1="227.5"
     x2="455"
     y2="227.5"
     gradientUnits="userSpaceOnUse" /></defs><sodipodi:namedview
   pagecolor="#ffffff"
   bordercolor="#666666"
   borderopacity="1"
   objecttolerance="10"
   gridtolerance="10"
   guidetolerance="10"
   inkscape:pageopacity="0"
   inkscape:pageshadow="2"
   inkscape:window-width="1366"
   inkscape:window-height="745"
   id="namedview1657"
   showgrid="false"
   inkscape:zoom="0.51868132"
   inkscape:cx="227.5"
   inkscape:cy="227.5"
   inkscape:window-x="-8"
   inkscape:window-y="-8"
   inkscape:window-maximized="1"
   inkscape:current-layer="Layer_1" />
<g
   id="g1624"
   style="fill:#ffffff;fill-opacity:1">
	<path
   style="fill-rule:evenodd;clip-rule:evenodd;fill:#ffffff;fill-opacity:1"
   d="M0,0v455h455V0H0z M379.493,301.961   c-3.861,16.75-17.563,29.118-34.057,30.96c-39.044,4.353-78.575,4.382-117.952,4.353c-39.361,0.029-78.892,0-117.948-4.353   c-16.498-1.841-30.199-14.21-34.04-30.96C70,278.114,70,252.061,70,227.499c0-24.562,0.065-50.603,5.556-74.45   c3.841-16.766,17.547-29.118,34.024-30.959c39.06-4.365,78.608-4.382,117.969-4.365c39.357-0.016,78.892,0,117.948,4.365   c16.498,1.841,30.199,14.193,34.057,30.959c5.495,23.847,5.446,49.888,5.446,74.45C385,252.061,384.984,278.114,379.493,301.961z"
   id="path1620" />
	<path
   style="fill-rule:evenodd;clip-rule:evenodd;fill:#ffffff;fill-opacity:1"
   d="M186.855,276.399c33.467-17.355,66.638-34.565,100.138-51.932   c-33.597-17.53-66.764-34.821-100.138-52.237V276.399z"
   id="path1622" />
</g>
<g
   id="g1626">
</g>
<g
   id="g1628">
</g>
<g
   id="g1630">
</g>
<g
   id="g1632">
</g>
<g
   id="g1634">
</g>
<g
   id="g1636">
</g>
<g
   id="g1638">
</g>
<g
   id="g1640">
</g>
<g
   id="g1642">
</g>
<g
   id="g1644">
</g>
<g
   id="g1646">
</g>
<g
   id="g1648">
</g>
<g
   id="g1650">
</g>
<g
   id="g1652">
</g>
<g
   id="g1654">
</g>
</svg>