<?xml version="1.0" encoding="iso-8859-1"?>
<!-- Generator: Adobe Illustrator 19.0.0, SVG Export Plug-In . SVG Version: 6.00 Build 0)  -->
<svg version="1.1" id="Layer_1" xmlns="http://www.w3.org/2000/svg" xmlns:xlink="http://www.w3.org/1999/xlink" x="0px" y="0px"
	 viewBox="0 0 512 512" style="enable-background:new 0 0 512 512;" xml:space="preserve">
<path style="fill:#E50914;" d="M485.04,449.124H26.952C12.128,449.124,0,436.988,0,422.164V89.828
	c0-14.824,12.128-26.952,26.952-26.952h458.096c14.824,0,26.952,12.128,26.952,26.952V422.18
	C511.992,437.004,499.864,449.124,485.04,449.124z"/>
<path d="M485.04,449.124H26.952C12.128,449.124,0,436.988,0,422.164V89.828c0-14.824,12.128-26.952,26.952-26.952h458.096
	c14.824,0,26.952,12.128,26.952,26.952V422.18C511.992,437.004,499.864,449.124,485.04,449.124z"/>
<polygon style="fill:#E50914;" points="368.912,246.42 197.272,147.324 197.272,345.516 "/>
<g>
</g>
<g>
</g>
<g>
</g>
<g>
</g>
<g>
</g>
<g>
</g>
<g>
</g>
<g>
</g>
<g>
</g>
<g>
</g>
<g>
</g>
<g>
</g>
<g>
</g>
<g>
</g>
<g>
</g>
</svg>
